<?xml version="1.0" encoding="UTF-8" standalone="no"?>
<!-- Created with Inkscape (http://www.inkscape.org/) -->

<svg
   width="24"
   height="24"
   viewBox="0 0 6.3499999 6.35"
   version="1.1"
   id="svg5"
   inkscape:version="1.2.1 (9c6d41e410, 2022-07-14)"
   sodipodi:docname="icon.svg"
   inkscape:export-filename="icon_1000x1000.png"
   inkscape:export-xdpi="4362.5562"
   inkscape:export-ydpi="4362.5562"
   xmlns:inkscape="http://www.inkscape.org/namespaces/inkscape"
   xmlns:sodipodi="http://sodipodi.sourceforge.net/DTD/sodipodi-0.dtd"
   xmlns="http://www.w3.org/2000/svg"
   xmlns:svg="http://www.w3.org/2000/svg">
  <sodipodi:namedview
     id="namedview7"
     pagecolor="#ffffff"
     bordercolor="#000000"
     borderopacity="0.25"
     inkscape:showpageshadow="2"
     inkscape:pageopacity="0.0"
     inkscape:pagecheckerboard="0"
     inkscape:deskcolor="#d1d1d1"
     inkscape:document-units="mm"
     showgrid="true"
     inkscape:zoom="16"
     inkscape:cx="24.874999"
     inkscape:cy="16.34375"
     inkscape:window-width="1920"
     inkscape:window-height="991"
     inkscape:window-x="-9"
     inkscape:window-y="-9"
     inkscape:window-maximized="1"
     inkscape:current-layer="g903">
    <inkscape:grid
       type="xygrid"
       id="grid182" />
  </sodipodi:namedview>
  <defs
     id="defs2" />
  <path
     id="path7116"
     style="display:inline;fill:#000000;fill-opacity:0.1;stroke-width:24.8528;stroke-linecap:square;stroke-linejoin:round;stroke-miterlimit:90"
     d="M 3.1757812,0.26367188 C 2.4134039,0.26317145 1.6562698,0.57810519 1.1171875,1.1171875 0.57810519,1.6562698 0.26317151,2.4134039 0.26367188,3.1757812 0.26379673,3.9377609 0.57816564,4.6957949 1.1171875,5.234375 1.6562094,5.7729551 2.4138017,6.0864375 3.1757812,6.0859375 3.9373631,6.0858126 4.6939022,5.7709416 5.2324219,5.2324219 5.7709416,4.6939022 6.0858126,3.9373631 6.0859375,3.1757812 6.0864374,2.4138017 5.7729551,1.6562094 5.234375,1.1171875 4.6957949,0.57816564 3.9377609,0.26379667 3.1757812,0.26367188 Z" />
  <path
     id="path236-6"
     style="fill:#3d6cbe;fill-opacity:1;stroke:none;stroke-width:24.8528;stroke-linecap:square;stroke-linejoin:round;stroke-miterlimit:90"
     d="M 0.79375 3.175 A 2.3812499 2.3812499 0 0 0 1.9750732 5.231722 L 3.175 3.175 L 0.79375 3.175 z " />
  <path
     id="path236-2"
     style="fill:#a2339c;fill-opacity:1;stroke:none;stroke-width:24.8528;stroke-linecap:square;stroke-linejoin:round;stroke-miterlimit:90"
     d="M 3.175 3.175 L 1.9750732 5.231722 A 2.3812499 2.3812499 0 0 0 3.175 5.55625 A 2.3812499 2.3812499 0 0 0 4.3563232 5.2425741 L 3.175 3.175 z " />
  <path
     id="path236-7"
     style="fill:#ec1b21;fill-opacity:1;stroke:none;stroke-width:24.8528;stroke-linecap:square;stroke-linejoin:round;stroke-miterlimit:90"
     d="M 3.175 3.175 L 4.3563232 5.2425741 A 2.3812499 2.3812499 0 0 0 5.5557332 3.1853353 L 3.175 3.175 z " />
  <path
     id="path236-26"
     style="fill:#f37423;fill-opacity:1;stroke:none;stroke-width:24.8528;stroke-linecap:square;stroke-linejoin:round;stroke-miterlimit:90"
     d="M 4.3749268 1.118278 L 3.175 3.175 L 5.5557332 3.1853353 A 2.3812499 2.3812499 0 0 0 5.55625 3.175 A 2.3812499 2.3812499 0 0 0 4.3749268 1.118278 z " />
  <path
     id="path236-77"
     style="fill:#ffe83a;fill-opacity:1;stroke:none;stroke-width:24.8528;stroke-linecap:square;stroke-linejoin:round;stroke-miterlimit:90"
     d="M 3.175 0.79375 A 2.3812499 2.3812499 0 0 0 1.9936768 1.1074259 L 3.175 3.175 L 4.3749268 1.118278 A 2.3812499 2.3812499 0 0 0 3.175 0.79375 z " />
  <path
     id="path236"
     style="fill:#159960;fill-opacity:1;stroke:none;stroke-width:24.8528;stroke-linecap:square;stroke-linejoin:round;stroke-miterlimit:90"
     d="M 1.9936768 1.1074259 A 2.3812499 2.3812499 0 0 0 0.79375 3.175 L 3.175 3.175 L 1.9936768 1.1074259 z " />
  <g
     id="g903"
     transform="translate(-6.879167)">
    <path
       id="path302"
       style="fill:#3d6cbe;fill-opacity:1;stroke:none;stroke-width:24.8528;stroke-linecap:square;stroke-linejoin:round;stroke-miterlimit:90"
       d="M 7.6729167,3.175 A 2.3812499,2.3812499 0 0 0 8.8542399,5.231722 L 9.1214071,4.7733521 C 8.9842089,4.6939063 8.8568779,4.5976145 8.7446859,4.4855143 8.4019375,4.143047 8.2021627,3.661071 8.2020833,3.1765503 V 3.175 Z" />
    <path
       id="path304"
       style="fill:#a2339c;fill-opacity:1;stroke:none;stroke-width:24.8528;stroke-linecap:square;stroke-linejoin:round;stroke-miterlimit:90"
       d="M 9.1214071,4.7733521 8.8542399,5.231722 A 2.3812499,2.3812499 0 0 0 10.054167,5.55625 2.3812499,2.3812499 0 0 0 11.23549,5.2425741 L 10.971423,4.7805868 C 10.693087,4.9390262 10.373994,5.026514 10.05365,5.0265666 9.7277279,5.0267804 9.4033512,4.9366142 9.1214071,4.7733521 Z" />
    <path
       id="path306"
       style="fill:#ec1b21;fill-opacity:1;stroke:none;stroke-width:24.8528;stroke-linecap:square;stroke-linejoin:round;stroke-miterlimit:90"
       d="m 11.904183,3.1832682 c -0.0019,0.481974 -0.201772,0.9598656 -0.542603,1.3006958 -0.115911,0.1159117 -0.247728,0.2155473 -0.390157,0.2966228 L 11.23549,5.2425741 A 2.3812499,2.3812499 0 0 0 12.4349,3.1853353 Z" />
    <path
       id="path308"
       style="fill:#ffe83a;fill-opacity:1;stroke:none;stroke-width:24.8528;stroke-linecap:square;stroke-linejoin:round;stroke-miterlimit:90"
       d="M 10.054167,0.79375 A 2.3812499,2.3812499 0 0 0 8.8728434,1.1074259 L 9.13691,1.56993 c 0.2782617,-0.1580244 0.5965959,-0.2456732 0.91674,-0.245463 0.325686,5.33e-5 0.650443,0.090412 0.932243,0.2537312 l 0.2682,-0.4599202 A 2.3812499,2.3812499 0 0 0 10.054167,0.79375 Z" />
    <path
       id="path310"
       style="fill:#159960;fill-opacity:1;stroke:none;stroke-width:24.8528;stroke-linecap:square;stroke-linejoin:round;stroke-miterlimit:90"
       d="M 8.8728434,1.1074259 A 2.3812499,2.3812499 0 0 0 7.6729167,3.175 H 8.2020833 C 8.2021923,2.6907501 8.4022643,2.2100079 8.7446859,1.8675863 8.8610965,1.7511757 8.993818,1.6511917 9.13691,1.56993 Z" />
    <path
       id="path312"
       style="fill:#f37423;fill-opacity:1;stroke:none;stroke-width:24.8528;stroke-linecap:square;stroke-linejoin:round;stroke-miterlimit:90"
       d="m 11.254093,1.118278 -0.2682,0.4599202 c 0.137431,0.079649 0.264454,0.1770293 0.376721,0.2893881 0.342468,0.3427483 0.541887,0.8244434 0.541569,1.308964 0,0.00226 9e-6,0.00446 0,0.00672 l 0.530717,0.00207 A 2.3812499,2.3812499 0 0 0 12.435417,3.175 2.3812499,2.3812499 0 0 0 11.254093,1.118278 Z" />
    <path
       id="path337"
       style="display:inline;fill:#000000;fill-opacity:0.34999999;stroke-width:24.8528;stroke-linecap:square;stroke-linejoin:round;stroke-miterlimit:90"
       d="M 10.054167,0.79375 C 9.4303702,0.79334053 8.810606,1.0508075 8.369515,1.4918986 7.928424,1.9329896 7.670957,2.5527536 7.6713664,3.1765503 7.6714686,3.8000217 7.9284734,4.4200052 8.369515,4.8606852 8.8105565,5.3013653 9.4306957,5.5582094 10.054167,5.5578003 10.677313,5.5576981 11.296121,5.2997656 11.736751,4.8591349 12.177382,4.4185043 12.434798,3.7996962 12.4349,3.1765503 12.435309,2.5530791 12.178982,1.9329402 11.738302,1.4918986 11.297621,1.0508569 10.677638,0.7938521 10.054167,0.79375 Z m -5.17e-4,0.530717 c 0.48452,7.93e-5 0.966496,0.2003708 1.308964,0.5431193 0.342468,0.3427482 0.541888,0.8244433 0.541569,1.308964 C 11.904104,3.6608179 11.704009,4.141535 11.36158,4.483964 11.019152,4.826393 10.537917,5.0264872 10.05365,5.0265666 9.5691294,5.0268846 9.0874341,4.8279817 8.7446859,4.4855143 8.4019375,4.143047 8.2021627,3.6610709 8.2020833,3.1765503 8.2017651,2.6917767 8.4018992,2.210373 8.7446859,1.8675863 9.0874726,1.5247995 9.5688765,1.3241488 10.05365,1.324467 Z" />
  </g>
</svg>
